<svg version="1.2" xmlns="http://www.w3.org/2000/svg" viewBox="0 0 4096 4096" width="4096" height="4096">
	<title>New Project</title>
	<style>
		.s0 { fill: #000000 } 
	</style>
	<path id="Shape 1" fill-rule="evenodd" class="s0" d="m2714.7 3116.7c-48.9-36.4-106.7-54.7-173.4-54.7h-986.5c-66.8 0-124.6 18.3-173.4 54.7q-73.2 54.8-73.2 129.7v645.2q0 75 73.2 129.7 73.2 54.7 173.4 54.7h986.5q100.1 0 173.4-54.7c48.7-36.5 73.2-79.7 73.2-129.7v-645.2c0-50-24.5-93.2-73.2-129.7zm121.3-3042c-47.5-36.4-104.7-54.7-171.4-54.7h-1233.1c-66.8 0-124 18.3-171.5 54.7q-71.3 54.8-67.4 129.7l107.9 2212.3c2.5 50 28.9 93.2 79 129.7 50.1 36.5 108.5 54.7 175.3 54.7h986.5c66.7 0 125.2-18.2 175.3-54.7q75.1-54.7 79-129.7l107.9-2212.3q3.8-74.9-67.5-129.7z"/>
</svg>