<svg version="1.2" xmlns="http://www.w3.org/2000/svg" viewBox="0 0 4096 4096" width="4096" height="4096">
	<title>New Project</title>
	<style>
		.s0 { fill: #000000 } 
	</style>
	<path id="Shape 1" fill-rule="evenodd" class="s0" d="m2515.6 3105.3c-27.9-25.5-60.5-38.2-97.7-38.2h-837.4q-55.8 0-97.7 38.2c-27.9 25.5-41.9 55.3-41.9 89.2v764.6q0 50.9 41.9 89.1 41.9 38.3 97.7 38.3h837.4c37.2 0 69.8-12.8 97.7-38.3q41.9-38.2 41.9-89.1v-764.6c0-33.9-14-63.7-41.9-89.2zm1001.3-2327q-143-240.5-369.8-406.2c-151.2-110.3-321-198.5-509.4-264.3-188.4-65.8-375.7-98.8-561.7-98.8-707.2 0-1246.8 282.5-1619 847.3-18.6 27.7-25 57.4-19.2 89.2 5.8 31.9 23.9 58.5 54.1 79.7l572.2 398.2c30.2 17 59.3 25.5 87.3 25.5 41.8 0 77.9-17 108.1-51 167.5-191.1 291.9-313.2 373.3-366.3q150-92.4 376.9-92.4c141.8 0 266.9 34 375 101.9 108.2 68 162.3 146.5 162.3 235.7 0 99.9-29.1 180.6-87.2 242.1-58.2 61.7-155.9 121.1-293.1 178.4-181.5 74.4-347.8 189.6-499 345.7-151.2 156-226.8 322.2-226.8 498.5v143.3q0 60.6 36.7 119.5c24.4 39.3 54.1 58.9 89 58.9h837.3c37.2 0 69.8-16.4 97.7-49.3q41.9-49.4 41.9-103.6c0-53 31.9-124.2 95.9-213.4 64-89.2 143.6-158.2 239-207.1 90.8-46.7 161.7-84.4 212.9-113q76.7-43.1 200.6-138.6c82.5-63.7 146.5-126.9 191.9-189.6 45.4-62.6 86-143.8 122.1-243.7 36.1-99.7 54.1-207 54.1-321.7 0-176.2-47.7-344.5-143.1-504.9z"/>
</svg>