<svg version="1.2" xmlns="http://www.w3.org/2000/svg" viewBox="0 0 4096 4096" width="4096" height="4096">
	<title>New Project</title>
	<style>
		.s0 { fill: #000000 } 
	</style>
	<path id="Shape 1" class="s0" d="m2148.6 3753.7l1424-1364.7c348.9-347.2 523.4-688.4 523.4-1023.5 0-333.6-96.8-594.4-290.3-782.5-193.5-188-461-282-802.3-282-94.5 0-190.8 16.3-289.1 48.9q-147.4 48.9-274.3 131.9c-84.6 55.4-157.4 107.3-218.3 155.8-60.9 48.6-118.8 100.1-173.7 154.7-54.9-54.6-112.8-106.1-173.7-154.7q-91.5-72.7-218.3-155.8-126.9-83-274.3-131.9-147.4-48.9-289.1-48.9c-341.4 0-608.8 94-802.3 282q-290.3 282.1-290.3 782.5 0 152.4 53.7 313.9c35.8 107.6 76.6 199.4 122.3 275.2 45.7 75.8 97.5 149.7 155.4 221.7q86.9 108.1 126.9 149 40 41 62.8 59.2l1426.3 1369.2c27.5 27.3 61 40.9 100.6 40.9q59.4 0 100.6-40.9z"/>
</svg>