<svg version="1.2" xmlns="http://www.w3.org/2000/svg" viewBox="0 0 4096 4096" width="4096" height="4096">
	<title>New Project</title>
	<style>
		.s0 { fill: #000000 } 
	</style>
	<path id="Shape 1" class="s0" d="m3098.9 1052.7q-10.4 0-31.3 4.9l-1032.9 238.5 446-1127q13-24.3 13.1-43.9c0-27.5-11.4-51.5-34-71.8q-33.9-30.4-83.4-30.4h-855.6q-41.8 0-73.1 21.9c-20.8 14.6-34.8 33.3-41.7 56l-524.3 2008.3q-13.1 58.4 33.9 94.9c22.6 17.9 49.6 26.8 80.9 26.8q20.8 0 31.3-2.4l1059-245.9-513.9 1966.9q-10.4 38.9 11.8 73 22.1 34.1 66.5 46.3 26.1 4.9 36.5 4.9c50.4 0 87-20.3 109.6-60.9l1408.6-2816.5c19.1-38.9 13-74.6-18.3-107.1-26.1-24.3-55.7-36.5-88.7-36.5z"/>
</svg>