<?xml version="1.0" standalone="no"?>
<!DOCTYPE svg PUBLIC "-//W3C//DTD SVG 20010904//EN"
 "http://www.w3.org/TR/2001/REC-SVG-20010904/DTD/svg10.dtd">
<svg version="1.0" xmlns="http://www.w3.org/2000/svg"
 width="512.000000pt" height="512.000000pt" viewBox="0 0 512.000000 512.000000"
 preserveAspectRatio="xMidYMid meet">

<g transform="translate(0.000000,512.000000) scale(0.100000,-0.100000)"
fill="#000000" stroke="none">
<path d="M2139 4544 l-394 -416 1 -101 c1 -56 5 -190 9 -297 l7 -195 244 -175
c135 -96 249 -179 254 -186 6 -6 81 -416 167 -912 87 -495 161 -898 164 -894
4 4 29 66 56 137 l50 130 58 1165 c31 641 59 1167 61 1169 4 4 177 1 181 -3 2
-2 -17 -403 -42 -892 -25 -489 -45 -893 -45 -899 1 -5 64 148 142 340 l140
350 44 575 c24 316 44 600 44 631 l0 56 -366 414 c-202 228 -370 415 -374 417
-3 1 -184 -185 -401 -414z"/>
<path d="M3691 4200 c-127 -137 -231 -257 -231 -265 0 -9 -7 -106 -16 -216
-21 -273 -19 -279 39 -134 l48 120 136 60 c75 32 144 66 153 75 13 11 24 62
44 195 15 99 35 233 45 298 10 64 17 117 15 117 -2 0 -107 -112 -233 -250z"/>
<path d="M4095 3752 l-420 -188 -513 -1280 -514 -1279 73 -418 73 -418 40 3
40 3 733 1455 c403 800 734 1459 736 1464 3 9 167 -70 167 -80 0 -7 -740
-1480 -1182 -2351 l-249 -493 123 0 123 0 733 1460 733 1459 -128 422 c-70
232 -132 424 -138 426 -5 1 -199 -82 -430 -185z"/>
<path d="M856 3259 l-268 -492 342 -1285 c188 -707 344 -1292 347 -1299 8 -19
933 -19 933 0 0 12 -494 2680 -504 2718 -3 14 13 20 86 33 50 9 92 15 94 14 1
-2 119 -628 261 -1391 l258 -1387 98 0 c70 0 97 3 97 12 0 31 -503 2884 -510
2888 -701 503 -950 680 -957 680 -4 0 -129 -221 -277 -491z"/>
<path d="M360 1422 c0 -4 93 -287 207 -629 l208 -623 154 0 153 0 -6 33 c-4
17 -66 254 -139 525 l-132 494 -190 90 c-229 108 -255 119 -255 110z"/>
<path d="M4309 1317 l-256 -111 -247 -494 c-136 -272 -243 -492 -237 -490 5 1
161 83 348 181 l338 179 160 415 c88 228 162 419 163 424 2 5 0 9 -5 8 -4 0
-123 -50 -264 -112z"/>
</g>
</svg>
