<?xml version="1.0" encoding="UTF-8" standalone="no"?>
<svg
   version="1.0"
   width="512.000000pt"
   height="512.000000pt"
   viewBox="0 0 512.000000 512.000000"
   preserveAspectRatio="xMidYMid meet"
   id="svg8"
   sodipodi:docname="diamond1.svg"
   inkscape:version="1.3-dev (2839b045a, 2022-12-05)"
   xmlns:inkscape="http://www.inkscape.org/namespaces/inkscape"
   xmlns:sodipodi="http://sodipodi.sourceforge.net/DTD/sodipodi-0.dtd"
   xmlns="http://www.w3.org/2000/svg"
   xmlns:svg="http://www.w3.org/2000/svg">
  <defs
     id="defs8" />
  <sodipodi:namedview
     id="namedview8"
     pagecolor="#ffffff"
     bordercolor="#000000"
     borderopacity="0.25"
     inkscape:showpageshadow="2"
     inkscape:pageopacity="0.0"
     inkscape:pagecheckerboard="0"
     inkscape:deskcolor="#d1d1d1"
     inkscape:document-units="pt"
     inkscape:zoom="0.874216"
     inkscape:cx="298.55322"
     inkscape:cy="310.56398"
     inkscape:window-width="1920"
     inkscape:window-height="1017"
     inkscape:window-x="-8"
     inkscape:window-y="-8"
     inkscape:window-maximized="1"
     inkscape:current-layer="svg8" />
  <g
     transform="matrix(0.10661499,0,0,-0.10661499,-17.003827,513.91105)"
     fill="#000000"
     stroke="none"
     id="g8">
    <path
       d="m 1008,4068 c 43,-57 156,-206 252,-333 95,-126 196,-258 223,-293 l 50,-63 49,48 c 27,26 203,204 390,396 l 340,347 H 1621 929 Z"
       id="path1" />
    <path
       d="m 2916,4078 c 380,-394 676,-690 683,-682 19,20 571,763 571,768 0,4 -302,6 -672,6 h -672 z"
       id="path2" />
    <path
       d="m 2146,3733 -418,-428 421,-3 c 231,-1 610,-1 840,0 l 420,3 -416,425 c -229,234 -419,426 -423,428 -3,1 -194,-190 -424,-425 z"
       id="path3" />
    <path
       d="m 4056,3694 c -158,-212 -286,-387 -284,-390 3,-2 267,-3 587,-2 l 581,3 -281,370 c -154,204 -288,378 -298,388 -16,16 -32,-4 -305,-369 z"
       id="path4" />
    <path
       d="m 477,3688 -284,-383 289,-3 c 158,-1 419,-1 579,0 l 291,3 -289,382 c -158,210 -291,382 -295,382 -3,1 -134,-171 -291,-381 z"
       id="path5" />
    <path
       d="m 212,3081 c 38,-48 2042,-2241 2044,-2238 2,2 -182,512 -409,1135 L 1435,3110 H 812 189 Z"
       id="path6" />
    <path
       d="m 1942,2263 c 170,-467 379,-1042 466,-1280 86,-238 160,-429 163,-425 4,5 858,2344 927,2540 3,9 -187,12 -930,12 h -935 z"
       id="path7" />
    <path
       d="M 3697,3098 C 3616,2882 2879,848 2882,846 c 2,-3 1736,1893 2011,2199 l 59,65 h -625 c -491,0 -626,-3 -630,-12 z"
       id="path8" />
  </g>
</svg>
