<?xml version="1.0" encoding="iso-8859-1"?>
<!-- Uploaded to: SVG Repo, www.svgrepo.com, Generator: SVG Repo Mixer Tools -->
<svg height="800px" width="800px" version="1.1" id="Capa_1" xmlns="http://www.w3.org/2000/svg" xmlns:xlink="http://www.w3.org/1999/xlink" 
	 viewBox="0 0 222.648 222.648" xml:space="preserve">
<g>
	<g>
		<path style="fill:#010002;" d="M211.275,147.308l-25.836-25.841c-4.536-4.531-11.879-4.531-16.415,0
			c-4.536,4.536-4.536,11.879,0,16.41l8.235,8.246h-43.29l-22.159-34.315l22.159-34.31h44.258l-7.267,7.267
			c-4.536,4.531-4.536,11.879,0,16.41c2.263,2.268,5.238,3.399,8.202,3.399c2.975,0,5.939-1.131,8.202-3.399l27.07-27.07
			l0.022-0.011l8.191-8.202l-37.203-37.22c-4.536-4.531-11.879-4.531-16.415,0c-4.536,4.536-4.536,11.879,0,16.41l9.197,9.208
			H127.66c-0.022,0-0.044,0.005-0.065,0.005c-0.669,0.011-1.327,0.087-1.985,0.196c-0.109,0.027-0.212,0.016-0.321,0.044
			c-0.702,0.147-1.392,0.359-2.061,0.636c-0.033,0.016-0.065,0.016-0.098,0.033c-1.071,0.451-2.061,1.115-2.975,1.898
			c-0.245,0.212-0.511,0.392-0.734,0.62c-0.179,0.179-0.321,0.392-0.49,0.587c-0.343,0.386-0.68,0.783-0.979,1.224
			c-0.011,0.022-0.033,0.049-0.054,0.071L97.99,90.432L78.083,59.603c-0.022-0.022-0.044-0.049-0.054-0.071
			c-0.31-0.451-0.658-0.87-1.023-1.273c-0.158-0.174-0.288-0.37-0.446-0.533c-0.288-0.294-0.626-0.544-0.957-0.805
			c-0.256-0.212-0.5-0.451-0.778-0.642c-0.179-0.114-0.381-0.196-0.566-0.305c-0.457-0.283-0.914-0.56-1.403-0.761
			c-0.147-0.065-0.299-0.098-0.446-0.147c-0.566-0.207-1.126-0.402-1.708-0.533c-0.136-0.027-0.267-0.027-0.392-0.049
			c-0.636-0.109-1.273-0.19-1.925-0.19c-0.022,0-0.044-0.005-0.065-0.005l-56.719-0.011C5.194,54.278,0,59.478,0,65.885
			s5.194,11.607,11.602,11.607l50.409,0.005l22.159,34.31l-22.159,34.315l-50.409-0.011c-6.407,0-11.602,5.2-11.602,11.607
			s5.194,11.602,11.602,11.602l56.708,0.011l0,0l0,0h0.011c0.903,0,1.773-0.125,2.622-0.326c0.223-0.054,0.446-0.141,0.669-0.207
			c0.615-0.185,1.224-0.408,1.795-0.696c0.256-0.114,0.5-0.256,0.745-0.402c0.555-0.321,1.061-0.68,1.55-1.088
			c0.19-0.163,0.402-0.315,0.582-0.484c0.647-0.62,1.235-1.3,1.73-2.051c0.011-0.022,0.033-0.038,0.054-0.06l19.907-30.829
			l19.907,30.829c0.022,0.022,0.044,0.038,0.054,0.06c0.5,0.751,1.082,1.441,1.73,2.051c0.179,0.169,0.381,0.321,0.571,0.473
			c0.49,0.408,1.012,0.783,1.561,1.104c0.245,0.141,0.49,0.283,0.745,0.397c0.571,0.288,1.18,0.517,1.806,0.696
			c0.223,0.071,0.435,0.152,0.658,0.207c0.848,0.196,1.708,0.326,2.622,0.326h51.535l-8.235,8.235
			c-4.536,4.531-4.536,11.879,0,16.41c2.263,2.263,5.238,3.399,8.202,3.399c2.975,0,5.939-1.137,8.202-3.399l35.278-35.278
			l-5.994-5.999C215.518,150.343,213.614,148.45,211.275,147.308z"/>
	</g>
</g>
</svg>